<?xml version="1.0" encoding="iso-8859-1"?>
<!-- Generator: Adobe Illustrator 19.0.0, SVG Export Plug-In . SVG Version: 6.00 Build 0)  -->
<svg version="1.1" id="Capa_1" xmlns="http://www.w3.org/2000/svg" xmlns:xlink="http://www.w3.org/1999/xlink" x="0px" y="0px"
	 viewBox="0 0 511.968 511.968" style="enable-background:new 0 0 511.968 511.968;" xml:space="preserve">
<g>
	<g>
		<path d="M425.744,441.76c-1.088-0.48-2.176-0.896-3.296-1.152c-1.376-0.416-22.656-6.56-35.36-20.032
			c58.464-43.648,92.896-112.896,92.896-188.32C479.984,104.192,379.472,0,255.984,0c-123.52,0-224,104.16-224,232.224
			c0,128.032,100.48,232.224,224,232.224c13.824,0,27.552-1.312,41.056-3.904c15.712,25.184,41.696,51.424,91.552,51.424
			c10.016,0,21.056-1.056,33.152-3.424c7.488-1.472,12.928-8.064,12.928-15.712v-36.704
			C434.672,450.048,431.216,444.448,425.744,441.76z M402.64,479.168c-49.088,5.6-69.312-17.824-83.552-44.352
			c-2.816-5.28-8.288-8.448-14.08-8.448c-1.28,0-2.592,0.16-3.904,0.512c-14.688,3.68-29.856,5.568-45.12,5.568
			c-105.888,0-192-89.824-192-200.224S150.096,32,255.984,32s192,89.824,192,200.256c0,69.984-34.144,133.76-91.424,170.528
			c-6.56,4.224-9.12,12.512-6.048,19.712c9.984,23.52,34.304,38.4,52.128,45.184V479.168z"/>
	</g>
</g>
<g>
	<g>
		<path d="M257.552,54.24c-67.392,0-122.208,67.68-122.208,150.912v55.68c0,83.2,54.816,150.88,122.208,150.88
			c9.888,0,19.744-1.472,29.28-4.352c4.64-1.408,8.384-4.864,10.176-9.376c1.824-4.512,1.472-9.6-0.928-13.824
			c-15.488-27.392-36-38.656-49.856-43.328v-13.728c38.528,2.656,63.936,24.032,76.352,37.6c3.232,3.488,7.968,5.696,12.608,5.152
			c4.736-0.224,9.152-2.56,12-6.368c21.056-28,32.64-64.48,32.64-102.624v-55.712h0C379.824,121.952,324.976,54.24,257.552,54.24z
			 M347.792,260.896c0,24.608-5.76,48.192-16.448,68.064c-21.088-17.664-55.232-36.736-102.048-33.856
			c-8.448,0.48-15.072,7.488-15.072,15.968v42.464c0,8.384,6.752,15.328,15.104,15.968c0.608,0.064,10.56,0.96,21.888,9.92
			c-46.784-4.32-83.872-55.84-83.872-118.592v-55.68c0-65.568,40.48-118.912,90.208-118.912c49.76,0,90.272,53.344,90.24,118.912
			V260.896z"/>
	</g>
</g>
<g>
</g>
<g>
</g>
<g>
</g>
<g>
</g>
<g>
</g>
<g>
</g>
<g>
</g>
<g>
</g>
<g>
</g>
<g>
</g>
<g>
</g>
<g>
</g>
<g>
</g>
<g>
</g>
<g>
</g>
</svg>
